<svg version="1.2" xmlns="http://www.w3.org/2000/svg" viewBox="0 0 528 500" width="528" height="500">
	<title>icon</title>
	<style>
		.s0 { fill: #4ec400 } 
		.s1 { fill: #66fc02 } 
	</style>
	<g>
		<path fill-rule="evenodd" class="s0" d="m410.4 58.3l-41.6 22.9-20.6 39.4 20.6 48.2 39 42.2 42.2-23.5 25.9-44.7-25.9-55.3z"/>
		<path class="s1" d="m412.5 250c0 89.8-72.8 162.5-162.5 162.5-89.7 0-162.5-72.7-162.5-162.5 0-89.8 72.7-162.5 162.5-162.5 36.9 0 70.9 12.3 98.2 33.1l62.2-62.2c-43.4-36.5-99.3-58.4-160.4-58.4-138.1 0-250 111.9-250 250 0 138.1 111.9 250 250 250 138.1 0 250-111.9 250-250 0-38.3-8.7-74.7-24.1-107.2l-68.1 68.2c3 12.5 4.7 25.6 4.7 39zm107.3-186.4l-39.7-39.7c-9.7-9.7-25.6-9.7-35.3 0l-34.4 34.4c27.5 23 49.9 51.8 65.5 84.5l43.9-43.9c9.8-9.7 9.8-25.6 0-35.3zm-270.5 155.8l98.9-98.9c29.1 22.1 50.5 53.8 59.6 90.4l-135.7 135.8c-12.2 12.2-32 12.2-44.2 0l-91.5-91.5c-9.8-9.8-9.8-25.6 0-35.3l39-39c9.8-9.8 25.6-9.8 35.3 0z"/>
	</g>
</svg>